# xmcd
#
# Track frame offsets:
#	150
#	25072
#	37116
#	52946
#	66463
#	95255
#	117266
#	131139
#	150635
#	164395
#	179377
#
# Disc length: 2681 seconds
#
# Revision: 5
# Processed by: cddbd v1.5.2PL0 Copyright (c) Steve Scherf et al.
# Submitted via: audiograbber 1.83.01
#
DISCID=920a770b
DTITLE=Willie Nelson - Songbird
DYEAR=2006
DGENRE=Country
TTITLE0=Rainy Day Blues
TTITLE1=Songbird
TTITLE2=Blue Hotel
TTITLE3=Back To Earth
TTITLE4=Stella Blue
TTITLE5=Hallelujah
TTITLE6=$1000 Wedding
TTITLE7=We Don't Run
TTITLE8=Yours Love
TTITLE9=Sad Songs And Waltzes
TTITLE10=Amazing Grace
EXTD=
EXTT0=
EXTT1=
EXTT2=
EXTT3=
EXTT4=
EXTT5=
EXTT6=
EXTT7=
EXTT8=
EXTT9=
EXTT10=
PLAYORDER=
